<svg xmlns="http://www.w3.org/2000/svg" width="256" height="48" viewBox="0 0 256 48" shape-rendering="crispEdges">
  <rect width="256" height="48" fill="none"/>
  <rect x="4" y="20" width="28" height="4" fill="#dfe7ef"/>
  <rect x="8" y="16" width="20" height="4" fill="#dfe7ef"/>
  <rect x="16" y="12" width="12" height="4" fill="#dfe7ef"/>

  <rect x="44" y="24" width="24" height="4" fill="#dfe7ef"/>
  <rect x="48" y="20" width="28" height="4" fill="#dfe7ef"/>
  <rect x="56" y="16" width="24" height="4" fill="#dfe7ef"/>
  <rect x="64" y="12" width="12" height="4" fill="#dfe7ef"/>

  <rect x="94" y="18" width="32" height="4" fill="#dfe7ef"/>
  <rect x="98" y="14" width="28" height="4" fill="#dfe7ef"/>
  <rect x="108" y="10" width="16" height="4" fill="#dfe7ef"/>

  <rect x="142" y="22" width="24" height="4" fill="#dfe7ef"/>
  <rect x="148" y="18" width="24" height="4" fill="#dfe7ef"/>
  <rect x="154" y="14" width="20" height="4" fill="#dfe7ef"/>

  <rect x="182" y="20" width="30" height="4" fill="#dfe7ef"/>
  <rect x="188" y="16" width="24" height="4" fill="#dfe7ef"/>
  <rect x="196" y="12" width="14" height="4" fill="#dfe7ef"/>

  <rect x="220" y="24" width="24" height="4" fill="#dfe7ef"/>
  <rect x="224" y="20" width="24" height="4" fill="#dfe7ef"/>
  <rect x="232" y="16" width="12" height="4" fill="#dfe7ef"/>
</svg>
