<svg xmlns="http://www.w3.org/2000/svg" width="320" height="96" viewBox="0 0 320 96" shape-rendering="crispEdges">
  <rect width="320" height="96" fill="none"/>

  <rect x="0" y="64" width="320" height="6" fill="#f2f7fb"/>
  <rect x="0" y="70" width="320" height="2" fill="#99a4b3"/>

  <rect x="0" y="72" width="320" height="24" fill="#dbe3eb"/>

  <g fill="#f2f7fb">
    <rect x="4" y="76" width="6" height="6"/>
    <rect x="12" y="82" width="6" height="6"/>
    <rect x="20" y="76" width="6" height="6"/>
    <rect x="28" y="82" width="6" height="6"/>
    <rect x="36" y="76" width="6" height="6"/>
    <rect x="44" y="82" width="6" height="6"/>
    <rect x="52" y="76" width="6" height="6"/>
    <rect x="60" y="82" width="6" height="6"/>
    <rect x="68" y="76" width="6" height="6"/>
    <rect x="76" y="82" width="6" height="6"/>
    <rect x="84" y="76" width="6" height="6"/>
    <rect x="92" y="82" width="6" height="6"/>
    <rect x="100" y="76" width="6" height="6"/>
    <rect x="108" y="82" width="6" height="6"/>
    <rect x="116" y="76" width="6" height="6"/>
    <rect x="124" y="82" width="6" height="6"/>
    <rect x="132" y="76" width="6" height="6"/>
    <rect x="140" y="82" width="6" height="6"/>
    <rect x="148" y="76" width="6" height="6"/>
    <rect x="156" y="82" width="6" height="6"/>
    <rect x="164" y="76" width="6" height="6"/>
    <rect x="172" y="82" width="6" height="6"/>
    <rect x="180" y="76" width="6" height="6"/>
    <rect x="188" y="82" width="6" height="6"/>
    <rect x="196" y="76" width="6" height="6"/>
    <rect x="204" y="82" width="6" height="6"/>
    <rect x="212" y="76" width="6" height="6"/>
    <rect x="220" y="82" width="6" height="6"/>
    <rect x="228" y="76" width="6" height="6"/>
    <rect x="236" y="82" width="6" height="6"/>
    <rect x="244" y="76" width="6" height="6"/>
    <rect x="252" y="82" width="6" height="6"/>
    <rect x="260" y="76" width="6" height="6"/>
    <rect x="268" y="82" width="6" height="6"/>
    <rect x="276" y="76" width="6" height="6"/>
    <rect x="284" y="82" width="6" height="6"/>
    <rect x="292" y="76" width="6" height="6"/>
    <rect x="300" y="82" width="6" height="6"/>
    <rect x="308" y="76" width="6" height="6"/>
  </g>

  <rect x="0" y="90" width="320" height="6" fill="#a0acb8"/>
</svg>
