<svg xmlns="http://www.w3.org/2000/svg" width="320" height="96" viewBox="0 0 320 96" shape-rendering="crispEdges">
  <rect width="320" height="96" fill="none"/>

  <path d="M16 70 L36 48 L54 70 Z" fill="#c8d2dc"/>
  <path d="M50 70 L72 42 L96 70 Z" fill="#d6dee6"/>
  <path d="M92 70 L118 46 L140 70 Z" fill="#c8d2dc"/>
  <path d="M178 70 L202 40 L226 70 Z" fill="#d6dee6"/>
  <path d="M220 70 L246 50 L266 70 Z" fill="#c8d2dc"/>

  <rect x="18" y="50" width="28" height="24" fill="#e6eef6"/>
  <rect x="22" y="54" width="4" height="4" fill="#07101a"/>
  <rect x="30" y="54" width="4" height="4" fill="#07101a"/>
  <rect x="38" y="54" width="4" height="4" fill="#07101a"/>
  <rect x="28" y="64" width="8" height="10" fill="#07101a"/>
  <rect x="24" y="46" width="16" height="4" fill="#e6eef6"/>

  <rect x="84" y="56" width="10" height="18" fill="#e6eef6"/>
  <rect x="96" y="52" width="12" height="22" fill="#e6eef6"/>
  <rect x="110" y="58" width="10" height="16" fill="#e6eef6"/>
  <rect x="96" y="48" width="12" height="4" fill="#e6eef6"/>

  <rect x="202" y="56" width="10" height="18" fill="#e6eef6"/>
  <rect x="214" y="52" width="12" height="22" fill="#e6eef6"/>
  <rect x="228" y="58" width="10" height="16" fill="#e6eef6"/>
  <rect x="214" y="48" width="12" height="4" fill="#e6eef6"/>

  <rect x="250" y="60" width="16" height="14" fill="#e6eef6"/>
  <rect x="270" y="58" width="18" height="16" fill="#e6eef6"/>
  <rect x="274" y="62" width="4" height="4" fill="#07101a"/>
  <rect x="282" y="62" width="4" height="4" fill="#07101a"/>

  <rect x="0" y="74" width="320" height="4" fill="#e6eef6"/>
  <rect x="0" y="78" width="320" height="2" fill="#8c98a6"/>
</svg>
