<svg xmlns="http://www.w3.org/2000/svg" width="32" height="32" viewBox="0 0 32 32" shape-rendering="crispEdges">
<rect x="4" y="10" width="4" height="5" fill="#f7fbff"/>
<rect x="24" y="10" width="4" height="5" fill="#f7fbff"/>
<rect x="5" y="20" width="5" height="4" fill="#f7fbff"/>
<rect x="22" y="20" width="5" height="4" fill="#f7fbff"/>
<rect x="9" y="5" width="14" height="4" fill="#16e7ff"/>
<rect x="6" y="9" width="20" height="15" fill="#53577e"/>
<rect x="8" y="7" width="16" height="18" fill="#d7dcff"/>
<rect x="10" y="9" width="12" height="13" fill="#d7dcff" opacity="0.86"/>
<rect x="13" y="12" width="6" height="7" fill="#06091d"/>
<rect x="15" y="13" width="3" height="5" fill="#16e7ff"/>
<rect x="11" y="8" width="5" height="2" fill="#f8fbff" opacity="0.8"/>
<rect x="20" y="10" width="3" height="3" fill="#f8fbff" opacity="0.55"/>
<rect x="12" y="24" width="8" height="3" fill="#53577e"/>
<rect x="26" y="24" width="1" height="5" fill="#16e7ff"/>
<rect x="24" y="26" width="5" height="1" fill="#16e7ff"/>
</svg>
